<mxfile host="app.diagrams.net" agent="Mozilla/5.0 (Macintosh; Intel Mac OS X 10_15_7) AppleWebKit/537.36 (KHTML, like Gecko) Chrome/134.0.0.0 Safari/537.36" version="26.1.1">
  <diagram name="Page-1" id="fE-Kflfy76ViVVHy9vDG">
    <mxGraphModel dx="954" dy="605" grid="1" gridSize="10" guides="1" tooltips="1" connect="1" arrows="1" fold="1" page="1" pageScale="1" pageWidth="827" pageHeight="1169" math="0" shadow="0">
      <root>
        <mxCell id="0" />
        <mxCell id="1" parent="0" />
        <mxCell id="u4MI1G_shy5al3AGnJ00-20" style="edgeStyle=orthogonalEdgeStyle;rounded=0;orthogonalLoop=1;jettySize=auto;html=1;" parent="1" source="u4MI1G_shy5al3AGnJ00-1" target="u4MI1G_shy5al3AGnJ00-12" edge="1">
          <mxGeometry relative="1" as="geometry" />
        </mxCell>
        <mxCell id="u4MI1G_shy5al3AGnJ00-1" value="&lt;div&gt;API Gateway&lt;/div&gt;" style="rounded=0;whiteSpace=wrap;html=1;" parent="1" vertex="1">
          <mxGeometry x="40" y="340" width="120" height="60" as="geometry" />
        </mxCell>
        <mxCell id="u4MI1G_shy5al3AGnJ00-4" style="edgeStyle=orthogonalEdgeStyle;rounded=0;orthogonalLoop=1;jettySize=auto;html=1;" parent="1" source="u4MI1G_shy5al3AGnJ00-2" target="u4MI1G_shy5al3AGnJ00-1" edge="1">
          <mxGeometry relative="1" as="geometry" />
        </mxCell>
        <mxCell id="u4MI1G_shy5al3AGnJ00-36" value="Sends Requests" style="edgeLabel;html=1;align=center;verticalAlign=middle;resizable=0;points=[];" parent="u4MI1G_shy5al3AGnJ00-4" vertex="1" connectable="0">
          <mxGeometry x="-0.1667" relative="1" as="geometry">
            <mxPoint as="offset" />
          </mxGeometry>
        </mxCell>
        <mxCell id="u4MI1G_shy5al3AGnJ00-34" style="edgeStyle=orthogonalEdgeStyle;rounded=0;orthogonalLoop=1;jettySize=auto;html=1;" parent="1" source="u4MI1G_shy5al3AGnJ00-2" target="u4MI1G_shy5al3AGnJ00-23" edge="1">
          <mxGeometry relative="1" as="geometry" />
        </mxCell>
        <mxCell id="u4MI1G_shy5al3AGnJ00-35" value="Listens" style="edgeLabel;html=1;align=center;verticalAlign=middle;resizable=0;points=[];" parent="u4MI1G_shy5al3AGnJ00-34" vertex="1" connectable="0">
          <mxGeometry x="-0.2094" y="-3" relative="1" as="geometry">
            <mxPoint x="14" y="-3" as="offset" />
          </mxGeometry>
        </mxCell>
        <mxCell id="u4MI1G_shy5al3AGnJ00-2" value="" style="shape=umlActor;verticalLabelPosition=bottom;verticalAlign=top;html=1;outlineConnect=0;" parent="1" vertex="1">
          <mxGeometry x="85" y="220" width="30" height="60" as="geometry" />
        </mxCell>
        <mxCell id="u4MI1G_shy5al3AGnJ00-6" value="Order Matching Engine" style="rounded=0;whiteSpace=wrap;html=1;" parent="1" vertex="1">
          <mxGeometry x="290" y="495" width="490" height="90" as="geometry" />
        </mxCell>
        <mxCell id="u4MI1G_shy5al3AGnJ00-7" value="Order Expiration Handler" style="rounded=0;whiteSpace=wrap;html=1;" parent="1" vertex="1">
          <mxGeometry x="400" y="340" width="120" height="60" as="geometry" />
        </mxCell>
        <mxCell id="u4MI1G_shy5al3AGnJ00-13" style="edgeStyle=orthogonalEdgeStyle;rounded=0;orthogonalLoop=1;jettySize=auto;html=1;entryX=0;entryY=0.5;entryDx=0;entryDy=0;" parent="1" source="u4MI1G_shy5al3AGnJ00-12" target="u4MI1G_shy5al3AGnJ00-7" edge="1">
          <mxGeometry relative="1" as="geometry" />
        </mxCell>
        <mxCell id="u4MI1G_shy5al3AGnJ00-12" value="" style="shape=cylinder3;whiteSpace=wrap;html=1;boundedLbl=1;backgroundOutline=1;size=15;rotation=-90;" parent="1" vertex="1">
          <mxGeometry x="270" y="310" width="60" height="120" as="geometry" />
        </mxCell>
        <mxCell id="u4MI1G_shy5al3AGnJ00-15" style="edgeStyle=orthogonalEdgeStyle;rounded=0;orthogonalLoop=1;jettySize=auto;html=1;" parent="1" source="u4MI1G_shy5al3AGnJ00-14" target="u4MI1G_shy5al3AGnJ00-6" edge="1">
          <mxGeometry relative="1" as="geometry" />
        </mxCell>
        <mxCell id="u4MI1G_shy5al3AGnJ00-14" value="" style="shape=cylinder3;whiteSpace=wrap;html=1;boundedLbl=1;backgroundOutline=1;size=15;rotation=-90;" parent="1" vertex="1">
          <mxGeometry x="150" y="480" width="60" height="120" as="geometry" />
        </mxCell>
        <mxCell id="u4MI1G_shy5al3AGnJ00-16" value="Order Queue" style="text;html=1;align=center;verticalAlign=middle;whiteSpace=wrap;rounded=0;" parent="1" vertex="1">
          <mxGeometry x="150" y="480" width="80" height="30" as="geometry" />
        </mxCell>
        <mxCell id="u4MI1G_shy5al3AGnJ00-17" value="Expiration request queue" style="text;html=1;align=center;verticalAlign=middle;whiteSpace=wrap;rounded=0;" parent="1" vertex="1">
          <mxGeometry x="240" y="300" width="130" height="30" as="geometry" />
        </mxCell>
        <mxCell id="u4MI1G_shy5al3AGnJ00-18" style="edgeStyle=orthogonalEdgeStyle;rounded=0;orthogonalLoop=1;jettySize=auto;html=1;entryX=0.5;entryY=0;entryDx=0;entryDy=0;entryPerimeter=0;" parent="1" source="u4MI1G_shy5al3AGnJ00-1" target="u4MI1G_shy5al3AGnJ00-14" edge="1">
          <mxGeometry relative="1" as="geometry" />
        </mxCell>
        <mxCell id="u4MI1G_shy5al3AGnJ00-38" value="Queues Orders" style="edgeLabel;html=1;align=center;verticalAlign=middle;resizable=0;points=[];" parent="u4MI1G_shy5al3AGnJ00-18" vertex="1" connectable="0">
          <mxGeometry x="-0.8" relative="1" as="geometry">
            <mxPoint y="4" as="offset" />
          </mxGeometry>
        </mxCell>
        <mxCell id="u4MI1G_shy5al3AGnJ00-21" style="edgeStyle=orthogonalEdgeStyle;rounded=0;orthogonalLoop=1;jettySize=auto;html=1;entryX=0.5;entryY=0;entryDx=0;entryDy=0;entryPerimeter=0;" parent="1" source="u4MI1G_shy5al3AGnJ00-7" target="u4MI1G_shy5al3AGnJ00-14" edge="1">
          <mxGeometry relative="1" as="geometry">
            <Array as="points">
              <mxPoint x="460" y="450" />
              <mxPoint x="100" y="450" />
              <mxPoint x="100" y="540" />
            </Array>
          </mxGeometry>
        </mxCell>
        <mxCell id="u4MI1G_shy5al3AGnJ00-37" value="Queus Cancellation Orders" style="edgeLabel;html=1;align=center;verticalAlign=middle;resizable=0;points=[];" parent="u4MI1G_shy5al3AGnJ00-21" vertex="1" connectable="0">
          <mxGeometry x="-0.0615" y="-1" relative="1" as="geometry">
            <mxPoint as="offset" />
          </mxGeometry>
        </mxCell>
        <mxCell id="u4MI1G_shy5al3AGnJ00-23" value="&lt;div&gt;Multicast Ports&lt;/div&gt;" style="rounded=0;whiteSpace=wrap;html=1;" parent="1" vertex="1">
          <mxGeometry x="600" y="340" width="120" height="60" as="geometry" />
        </mxCell>
        <mxCell id="u4MI1G_shy5al3AGnJ00-25" value="" style="endArrow=classic;html=1;rounded=0;entryX=0.5;entryY=1;entryDx=0;entryDy=0;" parent="1" target="u4MI1G_shy5al3AGnJ00-23" edge="1">
          <mxGeometry width="50" height="50" relative="1" as="geometry">
            <mxPoint x="660" y="490" as="sourcePoint" />
            <mxPoint x="550" y="420" as="targetPoint" />
          </mxGeometry>
        </mxCell>
        <mxCell id="u4MI1G_shy5al3AGnJ00-39" value="Outputs Trades" style="edgeLabel;html=1;align=center;verticalAlign=middle;resizable=0;points=[];" parent="u4MI1G_shy5al3AGnJ00-25" vertex="1" connectable="0">
          <mxGeometry x="0.0222" y="2" relative="1" as="geometry">
            <mxPoint as="offset" />
          </mxGeometry>
        </mxCell>
      </root>
    </mxGraphModel>
  </diagram>
</mxfile>
